<?xml version="1.0" encoding="UTF-8"?>
<svg version="1.1" xmlns="http://www.w3.org/2000/svg" width="100" height="100">
<path d="M0 0 C33 0 66 0 100 0 C100 33 100 66 100 100 C67 100 34 100 0 100 C0 67 0 34 0 0 Z " fill="#010101" transform="translate(0,0)"/>
<path d="M0 0 C4.8916811 3.32634315 7.55156149 6.61343528 10 12 C9.84958428 15.0897895 8.96482035 16.03635851 6.78515625 18.2890625 C5.43744141 19.44535156 5.43744141 19.44535156 4.0625 20.625 C2.71865234 21.78902344 2.71865234 21.78902344 1.34765625 22.9765625 C0.57292969 23.64429687 -0.20179687 24.31203125 -1 25 C-1.66 25.66 -2.32 26.32 -3 27 C-1.700625 26.855625 -0.40125 26.71125 0.9375 26.5625 C1.75863281 26.47613281 2.57976562 26.38976562 3.42578125 26.30078125 C5.0740617 26.10819006 6.71877471 25.87960822 8.35546875 25.60546875 C13.91427233 24.73481277 17.01905582 25.35056161 22 28 C22.042721 29.66611905 22.04063832 31.33382885 22 33 C20.13019585 34.86980415 16.95349621 34.17549898 14.45703125 34.2109375 C13.06899692 34.236919 11.68097633 34.26364228 10.29296875 34.29101562 C9.56126465 34.30430908 8.82956055 34.31760254 8.07568359 34.33129883 C-4.58449224 34.57576177 -16.94470258 35.2787222 -29.46875 37.28125 C-30.97903149 37.52168396 -32.48944722 37.76127637 -34 38 C-34.79535156 38.12979248 -35.59070313 38.25958496 -36.41015625 38.39331055 C-40.95096415 39.03899174 -43.93023184 39.29069811 -48 36.8125 C-48.7425 36.38582031 -49.485 35.95914063 -50.25 35.51953125 C-52.32353791 33.71907087 -52.46197469 32.62388216 -53 30 C-51.91581787 29.97494385 -50.83163574 29.9498877 -49.71459961 29.92407227 C-45.66843091 29.82946071 -41.62241253 29.72937414 -37.57641602 29.62768555 C-35.82970715 29.58453898 -34.0829616 29.54285083 -32.33618164 29.50268555 C-29.81645684 29.44448831 -27.29691329 29.38094003 -24.77734375 29.31640625 C-24.00414291 29.29969376 -23.23094208 29.28298126 -22.43431091 29.26576233 C-17.89777144 29.14352847 -13.45116908 28.95559647 -9 28 C-7.0721529 25.66950129 -5.84950161 23.87462124 -4.5 21.25 C-4.14164063 20.62867187 -3.78328125 20.00734375 -3.4140625 19.3671875 C-1.79498207 16.39259787 -0.95676598 14.45395716 -1.28125 11.046875 C-1.5184375 10.37140625 -1.755625 9.6959375 -2 9 C-5.62299804 7.93983024 -5.62299804 7.93983024 -9.140625 8.99609375 C-9.83671875 9.47175781 -10.5328125 9.94742187 -11.25 10.4375 C-15.85810844 13.1870047 -19.69206631 14.16014798 -25 13 C-28.0625 11 -28.0625 11 -30 9 C-29.67 8.01 -29.34 7.02 -29 6 C-26.99047852 5.12451172 -26.99047852 5.12451172 -24.37890625 4.4296875 C-23.44369141 4.17316406 -22.50847656 3.91664062 -21.54492188 3.65234375 C-20.56072266 3.39582031 -19.57652344 3.13929687 -18.5625 2.875 C-16.62592036 2.35297656 -14.68970363 1.82960434 -12.75390625 1.3046875 C-11.45948608 0.9641333 -11.45948608 0.9641333 -10.13891602 0.61669922 C-4.13697314 -1.11380046 -4.13697314 -1.11380046 0 0 Z " fill="#F3F3F3" transform="translate(64,9)"/>
<path d="M0 0 C2.3125 1.5625 2.3125 1.5625 4 3 C3.4740625 4.7634375 3.4740625 4.7634375 2.9375 6.5625 C1.87088402 10.74691653 2.12477305 13.79891062 3 18 C-1.80445395 20.44698897 -6.53791706 20.43620061 -11.8125 20.625 C-13.13797852 20.68300781 -13.13797852 20.68300781 -14.49023438 20.7421875 C-16.65982972 20.83600784 -18.82988547 20.91907326 -21 21 C-20.67 23.31 -20.34 25.62 -20 28 C-17.68733596 27.85679155 -15.37487565 27.71029195 -13.0625 27.5625 C-12.37969971 27.51955811 -11.69689941 27.47661621 -10.9934082 27.43237305 C-7.20049419 27.18334107 -3.45235298 26.83093877 0.3125 26.3125 C1.529375 26.209375 2.74625 26.10625 4 26 C6 28 6 28 6.0625 29.9375 C4.00486608 33.93173055 -0.9586782 34.65289273 -5 36 C-18.47745121 37.17195228 -18.47745121 37.17195228 -22.6875 34.0625 C-25.20403201 30.72979545 -26.12129164 27.98301843 -27.2109375 24.01171875 C-28.34524632 21.11979281 -30.32034593 20.37603858 -33 19 C-33 17.68 -33 16.36 -33 15 C-29.4587501 14.66213906 -25.91694184 14.33052169 -22.375 14 C-21.37597656 13.90460938 -20.37695312 13.80921875 -19.34765625 13.7109375 C-14.54861994 13.26599374 -9.82618926 12.86822691 -5 13 C-5 10.69 -5 8.38 -5 6 C-6.22976562 6.2165625 -7.45953125 6.433125 -8.7265625 6.65625 C-10.35932991 6.93776162 -11.99214497 7.21899704 -13.625 7.5 C-14.43324219 7.64308594 -15.24148437 7.78617188 -16.07421875 7.93359375 C-27.57653251 9.89740342 -27.57653251 9.89740342 -31.875 7.1875 C-34 5 -34 5 -34 2 C-33.40574219 1.98018066 -32.81148437 1.96036133 -32.19921875 1.93994141 C-29.46575581 1.84376007 -26.73296197 1.73446443 -24 1.625 C-22.59814453 1.57859375 -22.59814453 1.57859375 -21.16796875 1.53125 C-14.52832782 1.25266367 -6.1548255 -2.22257587 0 0 Z " fill="#F3F3F3" transform="translate(68,52)"/>
</svg>
